<?xml version="1.0" standalone="no"?>
<!DOCTYPE svg PUBLIC "-//W3C//DTD SVG 20010904//EN"
 "http://www.w3.org/TR/2001/REC-SVG-20010904/DTD/svg10.dtd">
<svg version="1.0" xmlns="http://www.w3.org/2000/svg"
 width="500.000000pt" height="500.000000pt" viewBox="0 0 500.000000 500.000000"
 preserveAspectRatio="xMidYMid meet">

<g transform="translate(0.000000,500.000000) scale(0.100000,-0.100000)"
fill="#000000" stroke="none">
<path d="M2250 3559 c0 -6 7 -17 15 -25 19 -19 19 -44 1 -44 -7 0 -28 -3 -45
-6 -28 -6 -31 -4 -31 19 0 14 6 27 13 30 26 10 -9 27 -41 21 -31 -6 -46 -34
-18 -34 9 0 15 -19 20 -57 5 -46 4 -59 -9 -66 -24 -13 -8 -27 31 -27 33 0 48
20 24 35 -16 10 -12 42 6 49 34 13 62 6 68 -16 3 -13 1 -24 -4 -26 -6 -2 -10
-9 -10 -15 0 -8 25 -12 80 -12 l80 0 -6 28 c-5 25 -4 27 30 27 34 0 61 -20 38
-28 -30 -10 -8 -30 46 -42 31 -6 67 -14 79 -17 19 -4 22 -1 20 23 -3 44 25 37
36 -8 6 -24 16 -40 29 -44 30 -9 45 11 19 25 -27 15 -27 48 -1 56 21 7 34 40
28 72 -6 34 -138 82 -138 50 0 -8 5 -17 11 -19 7 -2 6 -21 -6 -60 -27 -94 -70
-80 -100 32 -19 70 -35 90 -72 90 -23 0 -33 -25 -12 -32 7 -2 0 -25 -17 -61
-25 -51 -31 -57 -60 -57 -27 0 -32 4 -38 31 -9 47 -7 89 4 89 6 0 10 7 10 15
0 11 -11 15 -40 15 -22 0 -40 -5 -40 -11z m230 -53 c0 -8 3 -21 6 -30 5 -12 0
-16 -20 -16 -30 0 -30 0 -14 35 12 27 28 33 28 11z m234 -35 c11 -17 -6 -41
-29 -41 -31 0 -37 12 -25 45 8 22 13 24 29 15 11 -5 22 -14 25 -19z"/>
<path d="M2001 3512 c-49 -25 -59 -44 -37 -77 16 -24 23 -27 58 -22 50 7 68 0
68 -24 0 -32 -72 -55 -83 -26 -3 8 -8 9 -16 1 -8 -7 -8 -15 2 -28 28 -38 127
8 127 58 0 35 -27 51 -84 51 -44 0 -51 3 -51 20 0 24 56 48 62 28 5 -15 33
-18 33 -4 0 43 -26 51 -79 23z"/>
<path d="M2823 3449 c8 -29 -39 -123 -58 -115 -7 2 -16 -2 -19 -9 -3 -10 17
-26 61 -49 61 -33 68 -34 84 -20 21 19 14 51 -7 33 -11 -9 -21 -8 -44 1 -34
14 -36 19 -17 44 11 15 18 16 34 8 20 -11 33 -7 33 9 0 4 -9 11 -20 14 -22 7
-25 22 -11 44 8 12 13 12 35 -3 14 -9 26 -25 26 -36 0 -24 15 -26 24 -4 13 33
4 45 -54 74 -71 36 -74 36 -67 9z"/>
<path d="M1815 3430 c-48 -28 -67 -58 -35 -53 21 4 73 -96 59 -113 -19 -23 9
-25 50 -4 28 14 39 25 35 35 -5 13 -9 13 -21 3 -12 -10 -18 -9 -29 7 -19 25
-18 32 7 40 11 4 18 12 16 18 -5 12 -11 13 -37 3 -9 -4 -20 2 -27 14 -11 17
-10 21 16 34 20 11 31 12 39 4 5 -5 15 -7 22 -3 8 5 6 12 -6 26 -22 25 -29 24
-89 -11z"/>
<path d="M2430 3160 c0 -5 5 -10 11 -10 5 0 7 5 4 10 -3 6 -8 10 -11 10 -2 0
-4 -4 -4 -10z"/>
<path d="M2335 3140 c-3 -5 -1 -10 4 -10 6 0 11 5 11 10 0 6 -2 10 -4 10 -3 0
-8 -4 -11 -10z"/>
<path d="M2085 3130 c-3 -5 1 -10 10 -10 9 0 13 5 10 10 -3 6 -8 10 -10 10 -2
0 -7 -4 -10 -10z"/>
<path d="M2220 3130 c0 -5 5 -10 10 -10 6 0 10 5 10 10 0 6 -4 10 -10 10 -5 0
-10 -4 -10 -10z"/>
<path d="M2060 3100 c0 -5 5 -10 10 -10 6 0 10 5 10 10 0 6 -4 10 -10 10 -5 0
-10 -4 -10 -10z"/>
<path d="M2410 3090 c0 -5 5 -10 10 -10 6 0 10 5 10 10 0 6 -4 10 -10 10 -5 0
-10 -4 -10 -10z"/>
<path d="M2650 3090 c-20 -12 -5 -24 16 -12 9 5 12 12 7 15 -5 3 -15 2 -23 -3z"/>
<path d="M2135 3030 c3 -5 8 -10 11 -10 2 0 4 5 4 10 0 6 -5 10 -11 10 -5 0
-7 -4 -4 -10z"/>
<path d="M1990 3020 c0 -5 5 -10 11 -10 5 0 7 5 4 10 -3 6 -8 10 -11 10 -2 0
-4 -4 -4 -10z"/>
<path d="M2340 2970 c0 -5 5 -10 10 -10 6 0 10 5 10 10 0 6 -4 10 -10 10 -5 0
-10 -4 -10 -10z"/>
<path d="M3080 2944 c-63 -19 -173 -52 -245 -73 -377 -112 -643 -196 -639
-202 2 -3 40 -21 84 -40 44 -18 80 -35 80 -39 0 -3 -91 -46 -202 -95 l-202
-89 83 -39 82 -40 -33 -19 c-295 -166 -477 -272 -474 -275 4 -4 318 86 746
215 l265 80 -93 45 c-51 25 -89 48 -85 50 5 3 100 42 213 87 113 45 207 83
209 85 1 2 -33 20 -78 41 -45 20 -81 40 -81 43 0 4 37 28 83 53 65 37 85 44
96 35 12 -10 14 -9 8 5 -7 20 19 39 42 30 8 -2 11 0 8 5 -7 11 40 43 171 118
45 26 82 49 82 51 0 2 -1 4 -2 3 -2 -1 -55 -17 -118 -35z"/>
<path d="M2896 2935 c4 -8 10 -15 15 -15 5 0 9 7 9 15 0 8 -7 15 -15 15 -9 0
-12 -6 -9 -15z"/>
<path d="M2837 2920 c3 -11 7 -20 9 -20 2 0 4 9 4 20 0 11 -4 20 -9 20 -5 0
-7 -9 -4 -20z"/>
<path d="M1866 2875 c-3 -8 -1 -15 4 -15 6 0 10 7 10 15 0 8 -2 15 -4 15 -2 0
-6 -7 -10 -15z"/>
<path d="M1895 2839 c-11 -16 -1 -19 13 -3 7 8 8 14 3 14 -5 0 -13 -5 -16 -11z"/>
<path d="M1890 2736 c0 -9 5 -16 10 -16 6 0 10 4 10 9 0 6 -4 13 -10 16 -5 3
-10 -1 -10 -9z"/>
<path d="M1790 2730 c0 -5 7 -10 15 -10 8 0 15 5 15 10 0 6 -7 10 -15 10 -8 0
-15 -4 -15 -10z"/>
<path d="M3006 2701 c-4 -5 -2 -12 3 -15 5 -4 12 -2 15 3 4 5 2 12 -3 15 -5 4
-12 2 -15 -3z"/>
<path d="M2998 2663 c7 -3 16 -2 19 1 4 3 -2 6 -13 5 -11 0 -14 -3 -6 -6z"/>
<path d="M1840 2590 c0 -5 5 -10 10 -10 6 0 10 5 10 10 0 6 -4 10 -10 10 -5 0
-10 -4 -10 -10z"/>
<path d="M1925 2570 c3 -5 8 -10 11 -10 2 0 4 5 4 10 0 6 -5 10 -11 10 -5 0
-7 -4 -4 -10z"/>
<path d="M2970 2559 c0 -5 5 -7 10 -4 6 3 10 8 10 11 0 2 -4 4 -10 4 -5 0 -10
-5 -10 -11z"/>
<path d="M2880 2510 c0 -5 5 -10 11 -10 5 0 7 5 4 10 -3 6 -8 10 -11 10 -2 0
-4 -4 -4 -10z"/>
<path d="M2855 2470 c-3 -5 -1 -10 4 -10 6 0 11 5 11 10 0 6 -2 10 -4 10 -3 0
-8 -4 -11 -10z"/>
<path d="M3030 2460 c0 -5 5 -10 10 -10 6 0 10 5 10 10 0 6 -4 10 -10 10 -5 0
-10 -4 -10 -10z"/>
<path d="M1850 2419 c0 -5 5 -7 10 -4 6 3 10 8 10 11 0 2 -4 4 -10 4 -5 0 -10
-5 -10 -11z"/>
<path d="M1900 2410 c0 -5 5 -10 10 -10 6 0 10 5 10 10 0 6 -4 10 -10 10 -5 0
-10 -4 -10 -10z"/>
<path d="M1880 2290 c0 -5 5 -10 10 -10 6 0 10 5 10 10 0 6 -4 10 -10 10 -5 0
-10 -4 -10 -10z"/>
<path d="M2860 2240 c0 -5 7 -10 15 -10 8 0 15 5 15 10 0 6 -7 10 -15 10 -8 0
-15 -4 -15 -10z"/>
<path d="M2730 2190 c0 -5 5 -10 10 -10 6 0 10 5 10 10 0 6 -4 10 -10 10 -5 0
-10 -4 -10 -10z"/>
<path d="M2811 2147 c0 -12 3 -16 6 -9 2 6 9 10 14 6 5 -3 9 -1 9 4 0 6 -7 12
-15 16 -11 4 -15 -1 -14 -17z"/>
<path d="M2921 2140 c-1 -23 15 -45 23 -31 4 6 3 11 -3 11 -5 0 -12 8 -14 18
-3 12 -5 13 -6 2z"/>
<path d="M1870 2076 c0 -21 21 -31 31 -15 14 22 11 29 -11 29 -11 0 -20 -6
-20 -14z"/>
<path d="M2590 2070 c0 -5 5 -10 10 -10 6 0 10 5 10 10 0 6 -4 10 -10 10 -5 0
-10 -4 -10 -10z"/>
<path d="M2410 2030 c0 -5 5 -10 10 -10 6 0 10 5 10 10 0 6 -4 10 -10 10 -5 0
-10 -4 -10 -10z"/>
<path d="M2480 1999 c0 -5 5 -7 10 -4 6 3 10 8 10 11 0 2 -4 4 -10 4 -5 0 -10
-5 -10 -11z"/>
<path d="M2380 1939 c0 -5 5 -7 10 -4 6 3 10 8 10 11 0 2 -4 4 -10 4 -5 0 -10
-5 -10 -11z"/>
<path d="M2470 1870 c0 -5 5 -10 11 -10 5 0 7 5 4 10 -3 6 -8 10 -11 10 -2 0
-4 -4 -4 -10z"/>
</g>
</svg>
